# xmcd
# Track frame offsets:
# 150
# 13475
# 26001
# 44592
# 64588
# 84521
# 99216
# 113969
# 128096
# 139726
# 153120
# 166839
# 181760
# 195444
# 213518
# 231156
# 245043
# 258776
# 274363
# 289428
#
# Disc length: 4053 seconds
# Revision: 0
# Processed by: cddbd v1.5.2PL0 Copyright (c) Steve Scherf et al.
# Submitted via: VisiTrax 2.11.3.279 - For more info visit www.synapsa.com
#
DISCID=1c0fd314
DTITLE=Slim Dusty - A Land He Calls His Own Disc 3
DYEAR=1992
DGENRE=Australian Country
TTITLE0=Slim Dusty - Steppin' Round Australia
TTITLE1=Slim Dusty - Scrap With A Buck Kangaroo
TTITLE2=Slim Dusty - Ballad Of The Drover
TTITLE3=Slim Dusty - Droving By Train
TTITLE4=Slim Dusty - Lawson's Ghost
TTITLE5=Slim Dusty - A Land He Calls His Own
TTITLE6=Slim Dusty With Gordon Parsons - Another Day, Another Town
TTITLE7=Slim Dusty - Up The Old Nulla Road
TTITLE8=Slim Dusty - Second Class, Wait Here
TTITLE9=Slim Dusty - A Prouder Man Than You
TTITLE10=Slim Dusty - Balladeers Of Australia
TTITLE11=Slim Dusty - About This Hat
TTITLE12=Slim Dusty With Anne Kirkpatrick - Crying On Each Other's Shoulder
TTITLE13=Slim Dusty - How's Your Memory?
TTITLE14=Slim Dusty - Drought Time
TTITLE15=Slim Dusty - The Round Table
TTITLE16=Slim Dusty - Last Of The Bushmen
TTITLE17=Slim Dusty - The Pearl Of Them All
TTITLE18=Slim Dusty - What I Am
TTITLE19=Slim Dusty - Traveller's Prayer
EXTD=1992 EMI Music Australia
EXTT0=
EXTT1=
EXTT2=
EXTT3=
EXTT4=
EXTT5=
EXTT6=
EXTT7=
EXTT8=
EXTT9=
EXTT10=
EXTT11=
EXTT12=
EXTT13=
EXTT14=
EXTT15=
EXTT16=
EXTT17=
EXTT18=
EXTT19=
PLAYORDER=
